<?xml version="1.0" encoding="utf-8"?>
<!-- Generator: Adobe Illustrator 27.2.0, SVG Export Plug-In . SVG Version: 6.00 Build 0)  -->
<svg version="1.1" id="Layer_1" xmlns="http://www.w3.org/2000/svg" xmlns:xlink="http://www.w3.org/1999/xlink" x="0px" y="0px"
	 viewBox="0 0 16 16" style="enable-background:new 0 0 16 16;" xml:space="preserve">
<style type="text/css">
	.st0{fill:#FFFFFF;}
</style>
<path class="st0" d="M1.7,2C3.5,0.3,6.2,0.3,8,2c1-1,2.5-1.4,3.9-1.2h0c1.9,0.3,3.4,1.8,3.8,3.7v0c0.3,1.4-0.1,2.8-1,3.8l-5.3,6.3
	c-0.5,0.6-1.4,0.8-2.1,0.5C7,15,6.8,14.8,6.7,14.6L1.3,8.3C-0.2,6.5-0.1,3.7,1.7,2L1.7,2z M4.8,2.3c-1.7,0-3.1,1.4-3.1,3.1
	c0,0.7,0.3,1.5,0.7,2l0,0l5.3,6.3c0.1,0.1,0.2,0.1,0.3,0.1c0,0,0.1,0,0.1-0.1l5.3-6.3c0.6-0.7,0.9-1.7,0.7-2.6
	c-0.3-1.3-1.3-2.3-2.6-2.5c-1-0.2-1.9,0.2-2.6,0.8l0,0c-0.6,0.5-1.5,0.5-2,0l0,0C6.4,2.6,5.6,2.3,4.8,2.3z"/>
</svg>
