<?xml version="1.0" encoding="utf-8"?>
<!-- Generator: Adobe Illustrator 27.2.0, SVG Export Plug-In . SVG Version: 6.00 Build 0)  -->
<svg version="1.1" id="Layer_1" xmlns="http://www.w3.org/2000/svg" xmlns:xlink="http://www.w3.org/1999/xlink" x="0px" y="0px"
	 viewBox="0 0 16 16" style="enable-background:new 0 0 16 16;" xml:space="preserve">
<style type="text/css">
	.st0{fill:#1ED760;}
</style>
<path class="st0" d="M0,4.8C0,2.7,1.7,1,3.8,1h0.8v1.5H3.8c-1.2,0-2.2,1-2.2,2.2v5c0,1.2,1,2.2,2.2,2.2H5v1.5H3.8
	C1.7,13.5,0,11.8,0,9.8V4.8z M12.2,2.5h-0.8V1h0.8C14.3,1,16,2.7,16,4.8v5c0,2.1-1.7,3.8-3.8,3.8H9.8l1,1c0.3,0.3,0.3,0.8,0,1.1
	c-0.3,0.3-0.8,0.3-1.1,0c0,0,0,0,0,0l-2.8-2.8l2.8-2.8c0.3-0.3,0.8-0.3,1.1,0c0.3,0.3,0.3,0.8,0,1.1c0,0,0,0,0,0l-1,1h2.4
	c1.2,0,2.2-1,2.2-2.2v-5C14.5,3.5,13.5,2.5,12.2,2.5z"/>
<path class="st0" d="M9.1,8V1H7.8C7.7,1.7,7,2.3,6,2.3v1h1.6V8H9.1z"/>
</svg>
