<?xml version="1.0" encoding="utf-8"?>
<!-- Generator: Adobe Illustrator 27.2.0, SVG Export Plug-In . SVG Version: 6.00 Build 0)  -->
<svg version="1.1" id="Layer_1" xmlns="http://www.w3.org/2000/svg" xmlns:xlink="http://www.w3.org/1999/xlink" x="0px" y="0px"
	 viewBox="0 0 16 16" style="enable-background:new 0 0 16 16;" xml:space="preserve">
<style type="text/css">
	.st0{fill:#A7A7A7;}
</style>
<path class="st0" d="M13.2,0.9c-0.3-0.3-0.8-0.3-1.1,0c-0.3,0.3-0.3,0.8,0,1.1c0,0,0,0,0,0l1,1h-1.9C10.1,3,9,3.5,8.3,4.3l-6.2,7.4
	c-0.4,0.5-1.1,0.8-1.7,0.8H0V14h0.4c1.1,0,2.2-0.5,2.9-1.3l6.2-7.4c0.4-0.5,1.1-0.8,1.7-0.8h1.9l-1,1c-0.3,0.3-0.3,0.8,0,1.1
	c0.3,0.3,0.7,0.3,1,0L16,3.8L13.2,0.9L13.2,0.9z M0.4,3.5H0V2h0.4c1.1,0,2.2,0.5,2.9,1.3l1.6,1.9l-1,1.2L2.1,4.3
	C1.7,3.8,1.1,3.5,0.4,3.5L0.4,3.5z"/>
<path class="st0" d="M7.5,10.7l1-1.2l1,1.1c0.4,0.5,1.1,0.8,1.7,0.8h1.9l-1-1c-0.3-0.3-0.3-0.8,0-1.1s0.8-0.3,1.1,0c0,0,0,0,0,0
	l2.8,2.8l-2.8,2.8c-0.3,0.3-0.8,0.3-1.1,0s-0.3-0.8,0-1.1c0,0,0,0,0,0l1-1h-1.9c-1.1,0-2.2-0.5-2.9-1.3L7.5,10.7L7.5,10.7z"/>
</svg>
