<svg data-encore-id="icon" role="img" aria-hidden="true" viewBox="0 0 16 16"
    class="Svg-sc-ytk21e-0 Svg-img-icon-small">
    <path
        d="m7.5 10.723.788.938A3.75 3.75 0 0 0 11.16 13h1.947l-1.017 1.018a.75.75 0 1 0 1.06 1.06l2.829-2.828-2.829-2.828a.75.75 0 1 0-1.06 1.06l1.018 1.018H11.16a2.25 2.25 0 0 1-1.724-.804l-.957-1.14-.98 1.167z"
        fill="#1ed760"></path>
    <path
        d="M12.09.922a.75.75 0 0 1 1.061 0L15.98 3.75l-2.83 2.828a.75.75 0 1 1-1.06-1.06L13.109 4.5H11.16a2.25 2.25 0 0 0-1.724.804L3.264 12.66A3.75 3.75 0 0 1 .391 14H0v-1.5h.391a2.25 2.25 0 0 0 1.724-.804L8.288 4.34A3.75 3.75 0 0 1 11.16 3h1.947L12.09 1.982a.75.75 0 0 1 0-1.06zM.88 3.319C2.255 2.874 2.976 1.787 3.297.874c.036-.102.37-.102.406 0 .321.913 1.042 2 2.417 2.445.103.033.103.329 0 .362-1.375.445-2.096 1.532-2.417 2.445-.036.102-.37.102-.406 0-.321-.913-1.042-2-2.417-2.445-.103-.033-.103-.329 0-.362z"
        fill="#1ed760"></path>
</svg>