<?xml version="1.0" encoding="utf-8"?>
<!-- Generator: Adobe Illustrator 27.2.0, SVG Export Plug-In . SVG Version: 6.00 Build 0)  -->
<svg version="1.1" id="volume-icon" xmlns="http://www.w3.org/2000/svg" xmlns:xlink="http://www.w3.org/1999/xlink" x="0px"
	 y="0px" viewBox="0 0 16 16" style="enable-background:new 0 0 16 16;" xml:space="preserve">
<style type="text/css">
	.st0{fill:#FFFFFF;}
</style>
<path class="st0" d="M9.7,0.9C10,1,10.1,1.2,10.1,1.5v13c0,0.4-0.3,0.8-0.7,0.8c-0.1,0-0.3,0-0.4-0.1l-6.9-4c-1.7-1-2.3-3.2-1.3-5
	c0.3-0.6,0.8-1,1.3-1.3l6.9-4C9.2,0.7,9.5,0.7,9.7,0.9L9.7,0.9z M2.8,6.2C1.8,6.7,1.4,8.1,2,9.1c0.2,0.3,0.5,0.6,0.8,0.8l5.8,3.4
	V2.8C8.6,2.8,2.8,6.1,2.8,6.2z M11.5,10.4V5.6c1.3,0.7,1.9,2.4,1.2,3.7C12.4,9.8,12,10.2,11.5,10.4z"/>
<path class="st0" d="M11.5,13.6c3.1-0.7,5.1-3.8,4.4-6.9c-0.5-2.2-2.2-3.9-4.4-4.4v1.5C13.7,4.6,15,7,14.3,9.3
	c-0.4,1.3-1.5,2.4-2.8,2.8V13.6L11.5,13.6z"/>
</svg>
