<?xml version="1.0" encoding="utf-8"?>
<!-- Generator: Adobe Illustrator 27.2.0, SVG Export Plug-In . SVG Version: 6.00 Build 0)  -->
<svg version="1.1" id="volume-icon" xmlns="http://www.w3.org/2000/svg" xmlns:xlink="http://www.w3.org/1999/xlink" x="0px"
	 y="0px" viewBox="0 0 16 16" style="enable-background:new 0 0 16 16;" xml:space="preserve">
<style type="text/css">
	.st0{fill:#A7A7A7;}
</style>
<path class="st0" d="M13.9,5.5c-0.3-0.3-0.8-0.3-1.1,0c0,0,0,0,0,0l-1.5,1.5L9.9,5.5C9.6,5.2,9.1,5.2,8.8,5.5c-0.3,0.3-0.3,0.7,0,1
	L10.3,8L8.8,9.5c-0.3,0.3-0.3,0.8,0,1.1c0.3,0.3,0.8,0.3,1.1,0c0,0,0,0,0,0l1.5-1.5l1.5,1.5c0.3,0.3,0.8,0.3,1.1,0
	c0.3-0.3,0.3-0.7,0-1L12.4,8l1.5-1.5C14.2,6.2,14.2,5.8,13.9,5.5z"/>
<path class="st0" d="M10.1,1.5c0-0.4-0.3-0.8-0.7-0.8c-0.1,0-0.3,0-0.4,0.1l-6.9,4c-1.7,1-2.3,3.2-1.3,5c0.3,0.6,0.8,1,1.3,1.3
	l6.9,4c0.4,0.2,0.8,0.1,1-0.3c0.1-0.1,0.1-0.2,0.1-0.4v-1.9c-0.5-0.1-1-0.4-1.5-0.7v1.3L2.8,9.9C1.8,9.3,1.4,8,2,6.9
	c0.2-0.3,0.5-0.6,0.8-0.8l5.8-3.3v1.3c0.4-0.3,1-0.5,1.5-0.7V1.5z"/>
</svg>
