<?xml version="1.0" encoding="utf-8"?>
<!-- Generator: Adobe Illustrator 27.2.0, SVG Export Plug-In . SVG Version: 6.00 Build 0)  -->
<svg version="1.1" id="Layer_1" xmlns="http://www.w3.org/2000/svg" xmlns:xlink="http://www.w3.org/1999/xlink" x="0px" y="0px"
	 viewBox="0 0 16 16" style="enable-background:new 0 0 16 16;" xml:space="preserve">
<style type="text/css">
	.st0{fill:#A7A7A7;}
</style>
<path class="st0" d="M12.7,1C12.3,1,12,1.3,12,1.7v5.2L2,1.1C1.7,0.9,1.3,1,1.1,1.4C1,1.5,1,1.6,1,1.7v12.6C1,14.7,1.3,15,1.7,15
	c0.1,0,0.2,0,0.4-0.1L12,9.1v5.2c0,0.4,0.3,0.7,0.7,0.7h1.6c0.4,0,0.7-0.3,0.7-0.7V1.7C15,1.3,14.7,1,14.3,1H12.7z"/>
</svg>
