<?xml version="1.0" encoding="utf-8"?>
<!-- Generator: Adobe Illustrator 27.2.0, SVG Export Plug-In . SVG Version: 6.00 Build 0)  -->
<svg version="1.1" id="Layer_1" xmlns="http://www.w3.org/2000/svg" xmlns:xlink="http://www.w3.org/1999/xlink" x="0px" y="0px"
	 viewBox="0 0 16 16" style="enable-background:new 0 0 16 16;" xml:space="preserve">
<style type="text/css">
	.st0{fill:#A7A7A7;}
</style>
<path class="st0" d="M3.3,1C3.7,1,4,1.3,4,1.7c0,0,0,0,0,0v5.2l9.9-5.7c0.3-0.2,0.8-0.1,1,0.3C15,1.5,15,1.6,15,1.7v12.6
	c0,0.4-0.3,0.7-0.7,0.7c-0.1,0-0.2,0-0.4-0.1L4,9.1v5.2C4,14.7,3.7,15,3.3,15H1.7C1.3,15,1,14.7,1,14.3V1.7C1,1.3,1.3,1,1.7,1
	c0,0,0,0,0,0S3.3,1,3.3,1z"/>
</svg>
