<?xml version="1.0" encoding="utf-8"?>
<!-- Generator: Adobe Illustrator 27.2.0, SVG Export Plug-In . SVG Version: 6.00 Build 0)  -->
<svg version="1.1" id="Layer_1" xmlns="http://www.w3.org/2000/svg" xmlns:xlink="http://www.w3.org/1999/xlink" x="0px" y="0px"
	 viewBox="0 0 16 16" style="enable-background:new 0 0 16 16;" xml:space="preserve">
<path d="M2.7,1C2.3,1,2,1.3,2,1.7c0,0,0,0,0,0v12.6C2,14.7,2.3,15,2.7,15h2.6C5.7,15,6,14.7,6,14.3V1.7C6,1.3,5.7,1,5.3,1H2.7z
	 M10.7,1C10.3,1,10,1.3,10,1.7v12.6c0,0.4,0.3,0.7,0.7,0.7h2.6c0.4,0,0.7-0.3,0.7-0.7V1.7C14,1.3,13.7,1,13.3,1
	C13.3,1,10.7,1,10.7,1z"/>
</svg>
