<?xml version="1.0" encoding="utf-8"?>
<!-- Generator: Adobe Illustrator 27.2.0, SVG Export Plug-In . SVG Version: 6.00 Build 0)  -->
<svg version="1.1" id="Layer_1" xmlns="http://www.w3.org/2000/svg" xmlns:xlink="http://www.w3.org/1999/xlink" x="0px" y="0px"
	 viewBox="0 0 16 16" style="enable-background:new 0 0 16 16;" xml:space="preserve">
<path d="M2.4,0.6C2,0.6,1.6,0.9,1.6,1.3c0,0,0,0,0,0v13.4c0,0.4,0.3,0.7,0.7,0.7h2.8c0.4,0,0.7-0.3,0.7-0.7V1.3
	c0-0.4-0.3-0.7-0.7-0.7H2.4z M10.9,0.6c-0.4,0-0.7,0.3-0.7,0.7v13.4c0,0.4,0.3,0.7,0.7,0.7h2.8c0.4,0,0.7-0.3,0.7-0.7V1.3
	c0-0.4-0.3-0.7-0.7-0.7C13.6,0.6,10.9,0.6,10.9,0.6z"/>
</svg>
