<?xml version="1.0" encoding="utf-8"?>
<!-- Generator: Adobe Illustrator 27.2.0, SVG Export Plug-In . SVG Version: 6.00 Build 0)  -->
<svg version="1.1" id="Layer_1" xmlns="http://www.w3.org/2000/svg" xmlns:xlink="http://www.w3.org/1999/xlink" x="0px" y="0px"
	 viewBox="0 0 34 34" style="enable-background:new 0 0 34 34;" xml:space="preserve">
<style type="text/css">
	.st0{fill:#FFFFFF;}
</style>
<circle class="st0" cx="17" cy="17" r="16"/>
<path d="M11.7,10c-0.4,0-0.7,0.3-0.7,0.7c0,0,0,0,0,0v12.6c0,0.4,0.3,0.7,0.7,0.7h2.6c0.4,0,0.7-0.3,0.7-0.7V10.7
	c0-0.4-0.3-0.7-0.7-0.7H11.7z M19.7,10c-0.4,0-0.7,0.3-0.7,0.7v12.6c0,0.4,0.3,0.7,0.7,0.7h2.6c0.4,0,0.7-0.3,0.7-0.7V10.7
	c0-0.4-0.3-0.7-0.7-0.7C22.3,10,19.7,10,19.7,10z"/>
</svg>
